<?xml version="1.0" encoding="UTF-8"?>
<svg id="Layer_2" data-name="Layer 2" xmlns="http://www.w3.org/2000/svg" viewBox="0 0 565.49 242.65">
  <defs>
    <style>
      .cls-1, .cls-2, .cls-3 {
        stroke-width: 0px;
      }

      .cls-2 {
        fill: #fff;
      }

      .cls-3 {
        fill: #ff38c5;
      }
    </style>
  </defs>
  <polygon class="cls-1" points="403.36 170.23 403.36 107.44 246.38 170.23 246.38 107.44 89.4 170.23 89.4 107.44 27.01 132.39 0 64.85 162.14 0 162.14 62.79 319.12 0 319.12 62.79 476.1 0 476.1 62.79 538.48 37.84 565.49 105.38 403.36 170.23"/>
  <path class="cls-2" d="M152.4,29.25v37.24h-37.24v37.24h37.24v37.24h-74.48V29.25h74.48Z"/>
  <path class="cls-2" d="M264.13,103.74h-37.24v-37.24h37.24v37.24ZM264.13,66.49V29.25h74.48v37.24h-74.48ZM264.13,140.98v-37.24h74.48v37.24h-74.48Z"/>
  <path class="cls-2" d="M450.33,66.49h-37.24V29.25h74.48v111.72h-74.48v-37.24h37.24v-37.24Z"/>
  <path class="cls-3" d="M289.12,213.3v-1.56l-6.33-9.02v36.88c0,.85-.3,1.57-.89,2.16-.59.59-1.32.89-2.16.89s-1.57-.3-2.16-.91c-.59-.61-.89-1.32-.89-2.15v-45.28h7.9l7.5,10.95,7.76-10.95h7.75v45.28c0,.85-.31,1.57-.93,2.16-.62.59-1.35.89-2.2.89s-1.54-.3-2.15-.91c-.61-.61-.91-1.32-.91-2.15v-36.73l-6.18,8.73v1.71c0,.82-.3,1.54-.91,2.15-.61.61-1.32.91-2.15.91s-1.57-.3-2.16-.91c-.59-.61-.89-1.32-.89-2.15Z"/>
  <path class="cls-3" d="M349.53,200.5h-21.6v14.88h9.31c.82,0,1.54.3,2.15.91.61.61.91,1.32.91,2.15,0,.87-.3,1.61-.89,2.22-.59.61-1.32.91-2.16.91h-9.31v14.98h21.68c.82,0,1.54.3,2.15.89.61.59.91,1.32.91,2.16s-.31,1.57-.93,2.16c-.62.59-1.35.89-2.2.89h-27.71v-48.33h27.71c.85,0,1.58.31,2.2.93s.93,1.35.93,2.2-.31,1.54-.93,2.15c-.62.61-1.35.91-2.2.91Z"/>
  <path class="cls-3" d="M369.79,194.31h12.07c1.58.02,3.11.53,4.6,1.53s2.59,2.19,3.29,3.6l6.04,12.22c1.14,2.21,1.71,4.51,1.71,6.91,0,2.23-.61,4.52-1.82,6.87l-6.07,12.07c-.78,1.55-1.89,2.79-3.35,3.73-1.45.93-3.08,1.4-4.87,1.4h-11.67c-.85,0-1.57-.3-2.16-.91-.59-.61-.89-1.32-.89-2.15s.3-1.58.89-2.2c.59-.62,1.32-.93,2.16-.93h3.2v-35.97h-3.13c-.85,0-1.57-.31-2.16-.93-.59-.62-.89-1.35-.89-2.2s.3-1.54.89-2.15c.59-.61,1.31-.91,2.16-.91ZM379.02,200.5v36.04h2.14c1.35,0,2.37-.67,3.05-2.01l6.04-12c.75-1.58,1.13-2.9,1.14-3.96,0-1.33-.3-2.59-.91-3.78l-6.25-12.44c-.65-1.24-1.72-1.85-3.2-1.85h-2Z"/>
  <path class="cls-3" d="M414.77,194.31h24.73c.8,0,1.51.3,2.13.91.62.61.93,1.32.93,2.15s-.3,1.58-.91,2.2-1.32.93-2.15.93h-9.24v36.04h9.24c.85,0,1.57.3,2.16.89.59.59.89,1.32.89,2.16s-.3,1.57-.91,2.16c-.61.59-1.32.89-2.15.89h-24.73c-.85,0-1.57-.3-2.16-.89s-.89-1.32-.89-2.16.3-1.57.89-2.16,1.31-.89,2.16-.89h9.38v-36.04h-9.38c-.85,0-1.57-.3-2.16-.91-.59-.61-.89-1.32-.89-2.15,0-.87.3-1.61.89-2.22.59-.61,1.31-.91,2.16-.91Z"/>
  <path class="cls-3" d="M456.96,238.39l12.3-41.81c.49-1.51,1.52-2.27,3.09-2.27s2.48.64,2.87,1.93l12.18,42.44c.1.32.15.62.15.91,0,.85-.29,1.57-.87,2.16-.58.59-1.25.89-2,.89-1.6,0-2.62-.74-3.05-2.22l-2.42-8.29h-13.99l-2.66,8.88c-.07.39-.38.75-.91,1.1-.54.35-1.12.52-1.75.52-.9,0-1.65-.3-2.23-.91-.58-.61-.88-1.35-.88-2.22,0-.36.06-.74.18-1.13ZM472.31,208.46l-5.24,17.49h10.34l-5.1-17.49Z"/>
</svg>